<svg xmlns="http://www.w3.org/2000/svg" width="155px" height="155px" xmlns:xlink="http://www.w3.org/1999/xlink" viewBox="0 0 155 155" preserveAspectRatio="xMidYMid meet" onload="" ><defs id="svgEditorDefs"><symbol xmlns="http://www.w3.org/2000/svg" id="f067" preserveAspectRatio="xMidYMid meet" viewBox="0 0 448 512"><path d="M416 208H272V64c0-17.67-14.33-32-32-32h-32c-17.67 0-32 14.33-32 32v144H32c-17.67 0-32 14.33-32 32v32c0 17.67 14.33 32 32 32h144v144c0 17.67 14.33 32 32 32h32c17.67 0 32-14.33 32-32V304h144c17.67 0 32-14.33 32-32v-32c0-17.67-14.33-32-32-32z"/></symbol><polygon id="svgEditorIconDefs" style="fill:black;"/></defs><rect id="svgEditorBackground" x="0" y="0" width="155" height="155" style="fill: none; stroke: none;"/><path d="M17.20361328125,57q40,-92,81,1" style="fill:none;stroke:black;stroke-width:10px;" id="e4_arc2"/><rect x="7.2036" y="55.201" style="fill:none;stroke:black;stroke-width:10px;" id="e4_rectangle" width="100" height="89"/><use xlink:href="#f067" x="108.05" y="8.66235" width="39.6738" height="45.3415" id="e1_icon" style="fill:black;" transform="matrix(1.26673, 0, 0, 1.26673, -32.7015, -6.27645)"/></svg>