<svg xmlns="http://www.w3.org/2000/svg" width="100px" height="100px" xmlns:xlink="http://www.w3.org/1999/xlink" viewBox="0 0 100 100" preserveAspectRatio="xMidYMid meet" ><rect id="svgEditorBackground" x="0" y="0" width="100" height="100" style="fill: none; stroke: none;"/><defs id="svgEditorDefs"><polygon id="svgEditorShapeDefs" style="fill:black;stroke:black;vector-effect:non-scaling-stroke;stroke-width:1px;"/></defs><path d="M109.26899719238281,17.91900062561035c-3.2020034790039062,-2.812999725341797,-8.106002807617188,-2.4549999237060547,-11.119003295898438,0.5580005645751953l-34.17900085449219,34.20500183105469l-34.33700180053711,-34.36199951171875c-3.0930004119873047,-3.0920000076293945,-8.107999801635742,-3.0920000076293945,-11.201000213623047,0l-0.11300086975097656,0.11300086975097656c-3.0930004119873047,3.0930004119873047,-3.0930004119873047,8.107000350952148,0,11.201000213623047l34.34099578857422,34.366004943847656l-34.34000015258789,34.366004943847656c-3.0930004119873047,3.0930023193359375,-3.0930004119873047,8.108001708984375,0,11.201004028320312l0.11300086975097656,0.11299896240234375c3.0930004119873047,3.0930023193359375,8.107000350952148,3.0930023193359375,11.201000213623047,0l34.337005615234375,-34.362998962402344l34.17900085449219,34.20500183105469c3.01300048828125,3.01300048828125,7.916999816894531,3.3700027465820312,11.119003295898438,0.5579986572265625c3.5069961547851562,-3.0810012817382812,3.6370010375976562,-8.429000854492188,0.38800048828125,-11.678001403808594l-34.379005432128906,-34.40299987792969l34.37699890136719,-34.40399932861328c3.25,-3.2490005493164062,3.1200027465820312,-8.596000671386719,-0.38800048828125,-11.677000045776367Z" style="fill:#f04150; stroke:#f04150; vector-effect:non-scaling-stroke;stroke-width:1px;" id="e1_shape" transform="matrix(0.760417, 0, 0, 0.760417, -0.166667, 0.833333)"/></svg>